<svg xmlns="http://www.w3.org/2000/svg" width="20" height="20" fill="none"><g id="hide" clip-path="url('#clip0_37_1217')"><path id="Hide" fill="#4D4D4D" d="m12.483 10.169 1.136-1.136c.083.309.131.632.131.967A3.754 3.754 0 0 1 10 13.75c-.335 0-.658-.048-.967-.131l1.135-1.136a2.49 2.49 0 0 0 2.315-2.315m7.438-.473c-.077-.138-1.167-2.048-3.298-3.667l-.91.91A12.5 12.5 0 0 1 18.64 10C17.899 11.129 14.993 15 10 15a9.2 9.2 0 0 1-2.1-.249l-1.027 1.027c.944.29 1.982.472 3.127.472 6.543 0 9.786-5.704 9.921-5.946a.62.62 0 0 0 0-.608m-2.604-6.13-13.75 13.75a.623.623 0 0 1-.884 0 .625.625 0 0 1 0-.883l1.75-1.75c-2.829-1.707-4.266-4.22-4.354-4.38a.63.63 0 0 1 0-.607C.214 9.454 3.457 3.75 10 3.75c1.692 0 3.157.386 4.41.957l2.023-2.024a.625.625 0 1 1 .884.884M5.365 13.753l1.582-1.583A3.73 3.73 0 0 1 6.25 10 3.754 3.754 0 0 1 10 6.25c.809 0 1.556.26 2.17.697l1.279-1.28A9.2 9.2 0 0 0 10 5c-4.993 0-7.899 3.871-8.64 5 .47.712 1.823 2.516 4.005 3.752m2.49-2.49 3.407-3.408c-.372-.22-.8-.354-1.262-.354A2.503 2.503 0 0 0 7.5 10c0 .462.135.89.354 1.262"/></g><defs><clipPath id="clip0_37_1217"><path fill="#fff" d="M0 0h20v20H0z"/></clipPath></defs></svg>